PathFileType	4	(X/Y/Z)	C:/Users/opensim2020/Desktop/walking_exp_matlab/subject01/subject01_trc/subject01_walking17_run_cyclic.trc																																																																																																																																																																																					
DataRate	CameraRate	NumFrames	NumMarkers	Units	OrigDataRate	OrigDataStartFrame	OrigNumFrames																																																																																																																																																																																	
100	100	5	61	mm	100	308	58																																																																																																																																																																																	
Frame#	Time	LTHI			LKNE			RELB			STRN			RWRA			LSHO			RFRM			RUPA			RSHO			RASI			RBHD			RFIN			LFHD			RFHD			CLAV			LHEE			RWRB			LASI			LBHD			LWRA			LTIB			RTHI			LWRB			LTOE			RKNE			C7			LFRM			LFIN			LUPA			LELB			RTIB			RTOE			RBAK			RANK			T10			LPSI			LANK			RHEE			RPSI			*39			*40			*41			*42			*43			*44			*45			*46			*47			*48			*49			*50			*51			*52			*53			*54			*55			*56			*57			*58			*59			*60		
		X1	Y1	Z1	X2	Y2	Z2	X3	Y3	Z3	X4	Y4	Z4	X5	Y5	Z5	X6	Y6	Z6	X7	Y7	Z7	X8	Y8	Z8	X9	Y9	Z9	X10	Y10	Z10	X11	Y11	Z11	X12	Y12	Z12	X13	Y13	Z13	X14	Y14	Z14	X15	Y15	Z15	X16	Y16	Z16	X17	Y17	Z17	X18	Y18	Z18	X19	Y19	Z19	X20	Y20	Z20	X21	Y21	Z21	X22	Y22	Z22	X23	Y23	Z23	X24	Y24	Z24	X25	Y25	Z25	X26	Y26	Z26	X27	Y27	Z27	X28	Y28	Z28	X29	Y29	Z29	X30	Y30	Z30	X31	Y31	Z31	X32	Y32	Z32	X33	Y33	Z33	X34	Y34	Z34	X35	Y35	Z35	X36	Y36	Z36	X37	Y37	Z37	X38	Y38	Z38	X39	Y39	Z39	X40	Y40	Z40	X41	Y41	Z41	X42	Y42	Z42	X43	Y43	Z43	X44	Y44	Z44	X45	Y45	Z45	X46	Y46	Z46	X47	Y47	Z47	X48	Y48	Z48	X49	Y49	Z49	X50	Y50	Z50	X51	Y51	Z51	X52	Y52	Z52	X53	Y53	Z53	X54	Y54	Z54	X55	Y55	Z55	X56	Y56	Z56	X57	Y57	Z57	X58	Y58	Z58	X59	Y59	Z59	X60	Y60	Z60	X61	Y61	Z61
																																																																																																																																																																																								
25	0.24	-405.67053	542.19495	-542.39392	-422.965	405.47113	-519.04559	-529.38757	1179.89014	-88.76168	-222.7578	1130.4834	-404.54031	-442.44858	940.00317	-110.59139	-265.07019	1306.06262	-583.46063	-513.26129	1047.2522	-64.82465	-458.29404	1260.65332	-160.20155	-304.16751	1340.92786	-277.71848	-345.03522	890.59882	-295.23264	-364.73953	1547.25977	-370.57492	-421.15897	875.94629	-67.71375	-274.745	1610.67444	-498.36624	-266.33636	1624.82507	-386.832	-234.25887	1293.02063	-417.66638	-743.20459	105.12968	-390.10547	-477.52664	929.67957	-65.01009	-355.43436	880.66577	-509.46329	-372.19626	1535.71179	-489.17862	-64.79654	1026.85083	-527.09204	-550.96259	267.84039	-510.61499	-204.8445	640.52911	-235.38892	-47.08612	973.50427	-547.00031	-569.66077	29.13132	-445.10336	-112.1833	518.73297	-272.6582	-371.21469	1377.08594	-445.56662	-144.4005	973.03638	-622.30444	11.19986	1017.70111	-514.5127	-272.57483	1128.52881	-668.71863	-251.98999	977.55115	-683.36603	-252.04031	414.05225	-245.14365	-334.69028	148.62119	-243.54108	-464.23898	1214.70667	-358.28177	-406.71429	268.06271	-263.79254	-471.50732	1110.73657	-413.22321	-532.44299	911.54895	-440.21323	-690.6308	103.85225	-444.38846	-472.14725	262.94501	-311.68674	-520.14673	908.07324	-299.90997	1973.11938	1023.83813	-3101.948	2012.47449	1022.039	-3140.7417	NaN	NaN	NaN	-287.59131	1650.57898	-411.85513	NaN	NaN	NaN	NaN	NaN	NaN	NaN	NaN	NaN	NaN	NaN	NaN	NaN	NaN	NaN	NaN	NaN	NaN	NaN	NaN	NaN	NaN	NaN	NaN	NaN	NaN	NaN	NaN	NaN	NaN	NaN	NaN	NaN	NaN	NaN	NaN	NaN	NaN	NaN	NaN	NaN	NaN	NaN	NaN	NaN	NaN	NaN	NaN	NaN	NaN	NaN	NaN	NaN	NaN
26	0.25	-376.16547	544.47223	-543.66113	-404.3111	410.47925	-521.78003	-493.44244	1193.01843	-90.34365	-176.99258	1134.97754	-401.72382	-408.49872	952.91486	-106.2599	-216.87878	1311.94775	-581.67883	-478.96738	1061.71924	-63.93591	-419.92126	1271.32617	-161.24828	-261.70181	1345.54504	-276.47302	-297.74017	897.00696	-295.93979	-319.56735	1551.43347	-369.72717	-387.95969	888.72284	-61.92303	-229.22705	1614.3064	-497.58554	-221.08876	1628.78894	-386.05624	-188.70633	1297.24084	-414.69516	-732.66388	123.57345	-394.31186	-444.3761	944.39703	-61.14693	-308.6127	883.05591	-509.80405	-326.65747	1539.44275	-488.2038	-14.82525	1052.56116	-515.32104	-533.93268	277.66873	-513.33984	-150.18117	658.64447	-241.01974	7.29176	1000.12512	-531.57526	-569.08057	29.26165	-445.72873	-50.4398	542.99457	-276.96512	-325.94296	1380.32654	-445.76498	-85.43038	989.40704	-611.26129	60.78811	1049.54688	-499.47394	-216.30914	1134.60681	-665.73633	-190.11868	984.20941	-677.02081	-177.43152	420.65286	-248.84961	-227.23012	146.6642	-246.89011	-418.83847	1217.39087	-360.82965	-313.98248	256.54767	-266.521	-425.17795	1113.46729	-416.27899	-485.31198	914.16016	-442.07275	-681.28552	119.00114	-448.4006	-378.57712	243.01352	-314.07791	-473.31921	911.70782	-301.68469	1973.23254	1022.84259	-3101.94653	2012.35767	1021.91229	-3140.79761	NaN	NaN	NaN	-242.73952	1654.49683	-411.79477	NaN	NaN	NaN	NaN	NaN	NaN	NaN	NaN	NaN	NaN	NaN	NaN	NaN	NaN	NaN	NaN	NaN	NaN	NaN	NaN	NaN	NaN	NaN	NaN	NaN	NaN	NaN	NaN	NaN	NaN	NaN	NaN	NaN	NaN	NaN	NaN	NaN	NaN	NaN	NaN	NaN	NaN	NaN	NaN	NaN	NaN	NaN	NaN	NaN	NaN	NaN	NaN	NaN	NaN
27	0.26	-344.18185	549.69385	-545.27588	-381.74033	418.32068	-523.96906	-456.07916	1205.98071	-92.60585	-130.92102	1140.31262	-398.4234	-372.44101	966.12842	-103.41303	-168.86005	1318.30676	-579.46655	-442.92914	1076.22583	-64.29142	-380.15497	1282.63733	-162.85939	-218.74155	1351.13745	-275.46118	-250.88564	903.70667	-297.74429	-274.13568	1556.54236	-368.29468	-352.36255	901.36627	-57.92482	-183.60916	1618.69678	-496.1799	-175.51741	1633.48828	-384.91269	-143.26315	1302.26624	-411.60883	-717.60315	143.28099	-399.42108	-409.08414	958.87976	-59.07407	-260.03073	885.33966	-510.66757	-281.40073	1544.33215	-486.84854	31.84529	1077.38013	-505.08862	-515.76239	288.8631	-516.28107	-97.46606	675.4353	-245.83252	57.71659	1025.9093	-517.92303	-568.24207	29.38416	-445.98816	7.24764	564.72668	-280.15121	-280.61206	1384.31995	-445.74048	-30.54329	1005.78284	-600.4566	106.41656	1079.98169	-485.84293	-160.31551	1141.84509	-662.73657	-130.55977	991.97284	-670.97144	-104.80649	426.43393	-252.39513	-120.56579	146.47485	-252.67641	-373.14536	1221.09375	-362.79758	-220.24184	245.3768	-270.23157	-378.36813	1116.63049	-419.74997	-437.08859	917.53748	-444.30585	-669.26263	134.63336	-452.5658	-283.30496	224.20235	-317.70297	-426.11652	915.91455	-303.54166	1973.1665	1023.56195	-3101.96167	2012.39868	1021.96936	-3140.7876	NaN	NaN	NaN	-197.3868	1659.33191	-410.79858	NaN	NaN	NaN	NaN	NaN	NaN	NaN	NaN	NaN	NaN	NaN	NaN	NaN	NaN	NaN	NaN	NaN	NaN	NaN	NaN	NaN	NaN	NaN	NaN	NaN	NaN	NaN	NaN	NaN	NaN	NaN	NaN	NaN	NaN	NaN	NaN	NaN	NaN	NaN	NaN	NaN	NaN	NaN	NaN	NaN	NaN	NaN	NaN	NaN	NaN	NaN	NaN	NaN	NaN
28	0.27	-309.87805	556.05078	-546.73291	-354.48871	426.51596	-525.72772	-417.17896	1218.09766	-95.5937	-84.79774	1146.33997	-394.86441	-333.31381	978.25012	-101.34592	-120.8979	1325.13538	-576.83185	-405.33951	1090.04102	-65.46483	-339.06552	1293.7157	-164.99718	-175.48399	1357.56604	-274.31653	-203.78615	910.01514	-300.07047	-228.62529	1562.34155	-366.50888	-314.47736	913.22681	-55.27568	-138.03383	1623.62732	-494.90433	-129.60106	1638.54993	-383.50372	-97.95052	1308.02771	-408.57379	-697.04645	162.96623	-405.86319	-371.90723	972.2923	-58.21254	-210.68326	889.13538	-511.547	-236.10162	1549.84131	-485.03998	75.45498	1100.59265	-496.4671	-496.25015	301.87375	-520.21808	-46.18161	690.65515	-249.50275	104.77454	1050.53259	-506.59543	-566.71881	29.48696	-446.31775	60.93874	582.18591	-282.45325	-235.27441	1388.76294	-445.38455	22.14335	1022.4826	-592.25201	148.45755	1108.20667	-473.79306	-104.59691	1149.96033	-659.7608	-73.98138	1000.25159	-665.83783	-34.36921	430.51263	-255.2177	-15.72914	147.59274	-260.95334	-327.35007	1225.34509	-364.20953	-126.71732	235.42122	-274.56284	-331.76181	1120.05859	-423.62375	-387.79953	921.47052	-446.94226	-652.67651	150.17911	-458.13702	-187.76221	207.27266	-321.56998	-378.50958	920.61884	-305.65585	1973.22632	1023.52234	-3102.02051	2012.41626	1021.97107	-3140.61084	NaN	NaN	NaN	-151.317	1664.68665	-408.98618	NaN	NaN	NaN	NaN	NaN	NaN	NaN	NaN	NaN	NaN	NaN	NaN	NaN	NaN	NaN	NaN	NaN	NaN	NaN	NaN	NaN	NaN	NaN	NaN	NaN	NaN	NaN	NaN	NaN	NaN	NaN	NaN	NaN	NaN	NaN	NaN	NaN	NaN	NaN	NaN	NaN	NaN	NaN	NaN	NaN	NaN	NaN	NaN	NaN	NaN	NaN	NaN	NaN	NaN
29	0.28	-273.6622	562.93829	-547.56116	-325.01498	435.26114	-527.34448	-377.48267	1228.99524	-98.80158	-38.58518	1152.79028	-391.22119	-293.33792	988.88159	-100.73852	-73.02064	1332.01782	-573.77728	-366.46411	1102.47815	-67.0588	-297.11722	1304.01746	-167.20847	-132.22565	1363.58545	-273.26974	-154.61305	916.42621	-302.18976	-182.94987	1568.66907	-364.49948	-274.67609	923.59918	-53.90454	-92.20164	1628.64417	-493.26935	-83.36597	1643.87732	-382.01166	-52.85419	1314.27173	-405.50375	-669.99719	181.61053	-413.59521	-332.74744	983.8689	-58.13712	-160.63815	894.05957	-512.52899	-190.81992	1555.88403	-482.94678	117.31641	1121.65637	-490.57239	-473.17221	316.45316	-524.40338	3.23805	703.03082	-252.15846	148.86987	1072.66016	-497.49756	-563.60938	29.50058	-446.93011	111.74159	593.91968	-284.00473	-189.80705	1393.29028	-444.67075	71.55703	1037.93359	-585.28839	187.40248	1133.52783	-463.20874	-50.29849	1158.40076	-656.60486	-19.83031	1009.0202	-662.55688	33.7908	432.04156	-257.25714	85.9977	149.41531	-271.21991	-281.4223	1229.81274	-365.40814	-34.19274	226.50752	-279.63571	-284.40393	1123.49316	-427.33408	-337.7421	925.53076	-450.03195	-628.89697	164.3138	-465.53754	-92.46513	192.22089	-326.23813	-329.68127	925.34973	-308.56177	1973.03845	1024.07715	-3102.00049	2012.60461	1022.08716	-3140.80859	NaN	NaN	NaN	-104.77898	1670.03247	-406.87204	NaN	NaN	NaN	NaN	NaN	NaN	NaN	NaN	NaN	NaN	NaN	NaN	NaN	NaN	NaN	NaN	NaN	NaN	NaN	NaN	NaN	NaN	NaN	NaN	NaN	NaN	NaN	NaN	NaN	NaN	NaN	NaN	NaN	NaN	NaN	NaN	NaN	NaN	NaN	NaN	NaN	NaN	NaN	NaN	NaN	NaN	NaN	NaN	NaN	NaN	NaN	NaN	NaN	NaN
